<svg xmlns="http://www.w3.org/2000/svg" width="26" height="26" viewBox="0 0 26 26">
    <path data-name="Icon material-language" d="M15.987 3A13 13 0 1 0 29 16 12.994 12.994 0 0 0 15.987 3zM25 10.8h-3.839a20.344 20.344 0 0 0-1.794-4.628A10.439 10.439 0 0 1 25 10.8zm-9-5.148a18.313 18.313 0 0 1 2.483 5.148h-4.966A18.313 18.313 0 0 1 16 5.652zM5.938 18.6a10.169 10.169 0 0 1 0-5.2h4.394a21.47 21.47 0 0 0-.182 2.6 21.47 21.47 0 0 0 .182 2.6zM7 21.2h3.835a20.344 20.344 0 0 0 1.794 4.628A10.383 10.383 0 0 1 7 21.2zm3.835-10.4H7a10.383 10.383 0 0 1 5.629-4.628 20.344 20.344 0 0 0-1.79 4.628zM16 26.348a18.313 18.313 0 0 1-2.483-5.148h4.966A18.313 18.313 0 0 1 16 26.348zm3.042-7.748h-6.084a19.127 19.127 0 0 1-.208-2.6 18.961 18.961 0 0 1 .208-2.6h6.084a18.96 18.96 0 0 1 .208 2.6 19.127 19.127 0 0 1-.208 2.6zm.325 7.228a20.344 20.344 0 0 0 1.794-4.628H25a10.439 10.439 0 0 1-5.629 4.628zm2.3-7.228a21.47 21.47 0 0 0 .183-2.6 21.47 21.47 0 0 0-.182-2.6h4.394a10.169 10.169 0 0 1 0 5.2z" transform="translate(-3 -3)" style="fill:#0d1514"/>
</svg>
